<svg width="201" height="214" viewBox="0 0 201 214" fill="none" xmlns="http://www.w3.org/2000/svg">
<path d="M87.0081 111.32V172.283C87.0081 180.781 85.3917 188.17 82.1588 194.451C78.9259 200.686 74.0766 205.512 67.6108 208.93C61.145 212.301 53.0397 213.987 43.2949 213.987C29.3473 213.987 18.7019 210.408 11.3586 203.249C4.01538 196.091 0.34375 185.976 0.34375 172.906V111.32H27.8463V170.759C27.8463 177.917 29.1857 183.113 31.8644 186.346C34.543 189.579 38.4918 191.195 43.7106 191.195C47.4515 191.195 50.4996 190.502 52.855 189.117C55.2104 187.685 56.9192 185.445 57.9814 182.397C59.0899 179.349 59.6441 175.423 59.6441 170.62V111.32H87.0081Z" fill="black"/>
<path d="M194.802 212.601H163.905L143.884 173.876L135.778 178.725V212.601H108.276V111.32H135.778V155.31C136.933 153.093 138.249 150.876 139.727 148.66C141.251 146.443 142.729 144.341 144.161 142.356L165.429 111.32H195.356L163.42 156.696L194.802 212.601Z" fill="black"/>
<path d="M87.0081 0.478156V61.4411C87.0081 69.939 85.3917 77.3284 82.1588 83.6094C78.9259 89.8443 74.0766 94.6705 67.6108 98.0881C61.145 101.46 53.0397 103.145 43.2949 103.145C29.3473 103.145 18.7019 99.566 11.3586 92.4075C4.01538 85.249 0.34375 75.1347 0.34375 62.0646V0.478156H27.8463V59.917C27.8463 67.0755 29.1857 72.2713 31.8644 75.5041C34.543 78.737 38.4918 80.3535 43.7106 80.3535C47.4515 80.3535 50.4996 79.6607 52.855 78.2752C55.2104 76.8435 56.9192 74.6035 57.9814 71.5554C59.0899 68.5073 59.6441 64.5816 59.6441 59.7785V0.478156H87.0081Z" fill="black"/>
<path d="M170.416 101.76L165.429 82.7781H132.522L127.396 101.76H97.3302L130.375 0.0625H166.883L200.344 101.76H170.416ZM159.748 60.3327L155.384 43.7064C154.922 41.9052 154.252 39.342 153.375 36.0168C152.497 32.6453 151.62 29.1815 150.742 25.6254C149.911 22.023 149.264 19.0672 148.802 16.758C148.387 19.0672 147.786 21.9306 147.001 25.3483C146.262 28.7197 145.477 32.068 144.646 35.3933C143.861 38.7185 143.168 41.4896 142.568 43.7064L138.203 60.3327H159.748Z" fill="black"/>
</svg>
