<svg xmlns="http://www.w3.org/2000/svg" width="140" height="30" fill="none"><path fill="#010101" d="M132.439 21.366v-7.854h-4.001v-2.487h10.781v2.487h-4v7.854h-2.78Zm-8.392-3.708v-6.633h2.782v10.341h-2.782l-5.413-6.635v6.635h-2.78v-10.34h2.78l5.413 6.632Zm-10.244-6.633v6c0 2.537-1.17 4.585-5.266 4.585h-.538c-4.097 0-5.268-2.098-5.268-4.584v-6h2.78v5.609c0 1.317 0 2.536 2.782 2.536 2.78 0 2.78-1.22 2.78-2.536v-5.61h2.73Zm-21.316 0v4h5.366v-4h2.78v10.341h-2.78v-3.853h-5.366v3.853h-2.78v-10.34h2.78Zm-40.635 6-1.56-3.513-1.561 3.514h3.121Zm-7.511 4.341v-.634l4.584-9.707h2.782l4.585 9.707v.634h-2.489l-.876-2h-5.221l-.877 2h-2.488Zm-6.245 0v-7.854h-4v-2.487h10.782v2.487h-4.002v7.854h-2.78Zm-13.17 0v-10.34h2.78v7.852h7.122v2.488h-9.902Zm-1.805-7.854H16v1.562h5.562v2.487h-5.563v1.366h7.123v2.489h-9.903v-10.39h9.854l.05 2.486Zm-14.78 2.683c0-1.755 0-3.024-3.66-3.024-.535 0-1.219 0-1.9.05v5.95c.681.05 1.365.05 1.9.05 3.66 0 3.66-1.27 3.66-3.026Zm2.829.39c0 2.78-1.317 5.075-6.048 5.075h-.537c-1.561 0-3.122-.1-4.585-.294v-10.34c1.463-.197 3.024-.342 4.585-.342h.537c4.731 0 6.048 2.292 6.048 5.073v.828Z"/><path fill="#DEDEDE" d="m60.585 19.074 1.902 2.73L71.414 5.66l6.147 10.78 3.121.05L71.122 0 60.585 19.074Z"/><path fill="#A1A1A1" d="M74.535 0h-3.414l9.561 16.488H68.05l-1.366 2.39h18.683L74.536 0Z"/><path fill="#616160" d="M83.17 21.805H62.488l8.927-16.146 1.414 2.537-6.145 10.682h18.683l-2.195 2.927Z"/><path fill="#010101" d="M136.098 29.903v-3.22h.876v2.439h2.195v.78h-3.071Zm-9.709-1.317-.488-1.073-.488 1.073h.976Zm-2.342 1.317v-.194l1.416-3.026h.878l1.414 3.026v.194h-.781l-.291-.635h-1.611l-.293.635h-.732Zm-9.169-1.122v-2.049h.877v3.22h-.877l-1.66-2.05v2.05h-.878v-3.22h.878l1.66 2.049Zm-12.83.44c1.024 0 1.024-.44 1.024-.928 0-.488 0-.926-1.024-.926-1.025 0-1.025.438-1.025.926 0 .488 0 .928 1.025.928Zm-1.854-1.026c0-.878.391-1.56 1.757-1.56h.195c1.366 0 1.756.682 1.756 1.56v.244c0 .879-.39 1.561-1.756 1.561h-.195c-1.366 0-1.757-.682-1.757-1.56v-.245Zm-8.487 1.708h-.878v-3.22h.878v3.22Zm-11.269 0v-2.44h-1.22v-.78h3.366v.78h-1.267v2.44h-.879Zm-10.244-1.317-.487-1.073-.488 1.073h.975Zm-2.341 1.317v-.194l1.415-3.026h.877l1.416 3.026v.194h-.782l-.291-.635h-1.61l-.294.635h-.731Zm-9.22-1.122v-2.049h.88v3.22h-.88l-1.659-2.098v2.049h-.877v-3.22h.877l1.66 2.098ZM45.22 27.413v.684c.292.048.585.048.732.048.78 0 .78-.145.78-.438 0-.195 0-.341-.634-.341-.196 0-.586 0-.878.047Zm1.61 2.489-.634-1.025c-.341 0-.635 0-.976-.048v1.073h-.878v-3.22a20.49 20.49 0 0 1 1.756-.098h.145c1.075 0 1.367.488 1.367 1.073v.196c0 .391-.147.732-.536.927l.585.928v.194h-.829Zm-10.878-2.44h-2.195v.489h1.707v.78h-1.707v.44h2.195v.78h-3.074v-3.22h3.074v.732Zm-13.464 2.44v-2.44h-1.22v-.78h3.367v.78h-1.319v2.44h-.828ZM12.048 28.78v-2.049h.879v3.22h-.879l-1.707-2.098v2.049h-.878v-3.22h.878l1.707 2.098ZM1.023 29.902H.145v-3.22h.878v3.22Z"/></svg>