<svg xmlns="http://www.w3.org/2000/svg" width="99" height="11" fill="none"><g clip-path="url(#a)"><path fill="#000" d="M5.782 6.24H2.261v2.917h4.167V11H0V0h6.413v1.851H2.26V4.45h3.521v1.79ZM9.586 7.132V11h-2.26V0h3.813c1.107 0 1.989.337 2.645 1.012.661.675.992 1.552.992 2.63 0 1.077-.325 1.928-.977 2.553-.65.624-1.553.937-2.706.937H9.586Zm0-1.851h1.553c.43 0 .764-.139 1-.416.235-.277.353-.68.353-1.208 0-.55-.12-.985-.361-1.307a1.162 1.162 0 0 0-.969-.5H9.586v3.43Z"/><path fill="#910048" d="M17.731.001h3.86v2.064h-1.753v6.88h1.753V11h-3.86V.001ZM31.325 0h-3.86v2.064h1.753v6.88h-1.753v2.055h3.86V0Z"/><path fill="#000" d="M40.21 8.662H37.2l-.585 2.19H34.28L37.696.148h2.019l3.438 10.706h-2.357l-.585-2.191ZM37.68 6.86h2.043l-1.021-3.816L37.68 6.86ZM44.181 10.853V.147h2.89c1.276 0 2.293.397 3.048 1.191.76.794 1.148 1.883 1.164 3.265v1.735c0 1.407-.38 2.512-1.141 3.316-.756.8-1.8 1.199-3.13 1.199h-2.83Zm2.207-8.905v7.11h.66c.736 0 1.255-.188 1.555-.565.3-.383.458-1.04.473-1.971v-1.86c0-1-.143-1.696-.428-2.089-.286-.397-.771-.605-1.457-.625h-.803ZM56.267 7.912 58.106.147h2.462l-3.153 10.706h-2.297L51.988.147h2.447l1.832 7.765ZM63.9 10.853h-2.206V.147h2.207v10.706ZM70.372 8.044c0-.436-.116-.765-.346-.985-.225-.226-.638-.459-1.238-.699-1.096-.407-1.884-.882-2.365-1.426a2.854 2.854 0 0 1-.72-1.941c0-.902.325-1.625.975-2.17C67.334.276 68.165 0 69.171 0c.67 0 1.268.14 1.794.42.525.274.928.663 1.208 1.168.285.505.428 1.079.428 1.72h-2.2c0-.5-.11-.88-.33-1.139-.215-.265-.528-.397-.938-.397-.385 0-.686.113-.9.338-.216.22-.323.52-.323.897 0 .294.12.562.36.802.24.235.665.48 1.276.735 1.066.378 1.839.84 2.32 1.39.485.549.728 1.247.728 2.095 0 .932-.303 1.66-.909 2.184-.605.525-1.429.787-2.47.787a4.328 4.328 0 0 1-1.929-.427 3.268 3.268 0 0 1-1.366-1.22c-.325-.53-.488-1.155-.488-1.875h2.215c0 .618.122 1.066.367 1.345.246.28.646.42 1.202.42.77 0 1.156-.4 1.156-1.199ZM81.751 6.463c0 1.436-.347 2.552-1.043 3.346-.69.794-1.651 1.19-2.882 1.19-1.227 0-2.19-.391-2.89-1.176-.701-.789-1.056-1.892-1.066-3.308V4.684c0-1.47.347-2.618 1.043-3.441C75.609.414 76.574 0 77.81 0c1.215 0 2.174.407 2.875 1.22.7.81 1.055 1.947 1.065 3.412v1.831ZM79.537 4.67c0-.966-.14-1.684-.42-2.154-.28-.47-.716-.706-1.306-.706-.586 0-1.019.228-1.3.684-.28.45-.425 1.14-.434 2.066v1.904c0 .936.142 1.628.427 2.074.286.44.726.661 1.322.661.575 0 1.003-.215 1.283-.647.28-.436.423-1.11.428-2.022V4.67ZM86.646 6.941H85.55v3.912h-2.207V.147h3.52c1.106 0 1.96.282 2.56.846.605.558.908 1.355.908 2.39 0 1.42-.528 2.416-1.584 2.985l1.915 4.382v.103H88.29L86.646 6.94ZM85.55 5.14h1.253c.44 0 .77-.143.991-.427.22-.29.33-.674.33-1.154 0-1.074-.427-1.61-1.283-1.61H85.55v3.19ZM94.783 4.956 96.427.147h2.402L95.9 6.97v3.883h-2.237V6.97L90.73.147h2.402l1.652 4.809Z"/></g><defs><clipPath id="a"><path fill="#fff" d="M0 0h99v11H0z"/></clipPath></defs></svg>