<svg xmlns="http://www.w3.org/2000/svg" width="93" height="24" fill="none"><path fill="#C81111" d="M67.672.156v13.75c0 1.917-.365 3.584-1.094 5-.729 1.407-1.823 2.495-3.281 3.266-1.458.76-3.287 1.14-5.484 1.14-3.146 0-5.547-.807-7.204-2.421-1.656-1.615-2.484-3.896-2.484-6.844V.157h6.203v13.405c0 1.615.302 2.787.906 3.516.605.73 1.495 1.094 2.672 1.094.844 0 1.532-.156 2.063-.469.531-.323.916-.828 1.156-1.515.25-.688.375-1.573.375-2.657V.156h6.172ZM91.984 23h-6.968L80.5 14.266l-1.828 1.093V23h-6.203V.156h6.203v9.922c.26-.5.557-1 .89-1.5.344-.5.678-.974 1-1.422l4.797-7h6.75l-7.203 10.235L91.984 23Z"/><path fill="url(#a)" d="M19.89.156v13.75c0 1.917-.364 3.584-1.093 5-.73 1.407-1.823 2.495-3.281 3.266-1.459.76-3.287 1.14-5.485 1.14-3.146 0-5.547-.807-7.203-2.421C1.172 19.276.344 16.995.344 14.047V.157h6.203v13.405c0 1.615.302 2.787.906 3.516.604.73 1.495 1.094 2.672 1.094.844 0 1.531-.156 2.063-.469.53-.323.916-.828 1.156-1.515.25-.688.375-1.573.375-2.657V.156h6.172ZM38.704 23l-1.125-4.281h-7.422L29 23h-6.781L29.672.062h8.234L45.453 23h-6.75Zm-2.406-9.344-.984-3.75c-.105-.406-.256-.984-.454-1.734a190.25 190.25 0 0 1-.593-2.344 72.415 72.415 0 0 1-.438-2c-.094.521-.229 1.167-.406 1.938-.167.76-.344 1.515-.531 2.265-.177.75-.334 1.375-.47 1.875l-.983 3.75h4.859Z"/><defs><linearGradient id="a" x1="23" x2="23" y1="-6" y2="28" gradientUnits="userSpaceOnUse"><stop stop-color="#CB942C"/><stop offset="1" stop-color="#FACA86"/></linearGradient></defs></svg>