<svg xmlns="http://www.w3.org/2000/svg" width="132" height="54" fill="none"><path fill="#303030" d="M24.958 18.003h-2.47c-.145-1.832-1.372-2.757-3.665-2.757a3.875 3.875 0 0 0-2.227.568 1.617 1.617 0 0 0-.824 1.476 2.694 2.694 0 0 0 0 .519.959.959 0 0 0 .226.438l.29.34c.126.121.274.215.437.276l.452.21c.184.09.38.156.58.195l.598.146.694.163.646.146c.71.146 1.26.275 1.614.373.505.15 1.001.328 1.486.535.516.204 1 .483 1.436.827.369.328.67.724.888 1.168.257.501.39 1.058.388 1.622a4.25 4.25 0 0 1-1.695 3.52 7.112 7.112 0 0 1-4.44 1.427 7.176 7.176 0 0 1-4.698-1.347 5.049 5.049 0 0 1-1.76-3.925h2.422c.146 2.125 1.502 3.244 4.068 3.244a4.633 4.633 0 0 0 2.664-.681 2.089 2.089 0 0 0 1.001-1.833 1.628 1.628 0 0 0-.517-1.249 3.371 3.371 0 0 0-1.162-.713 22.182 22.182 0 0 0-1.84-.52h-.259l-1.113-.243-1.243-.308-1.082-.535a4.07 4.07 0 0 1-1.066-.519 9.526 9.526 0 0 1-.758-.714 2.159 2.159 0 0 1-.598-.989 4.01 4.01 0 0 1-.177-1.297 3.907 3.907 0 0 1 1.614-3.244 6.661 6.661 0 0 1 4.165-1.184 6.95 6.95 0 0 1 4.327 1.248 4.217 4.217 0 0 1 1.598 3.617ZM34.79 13.624v2.044h-3.003v9.747c.029.212.083.418.161.617a.765.765 0 0 0 .5.519c.32.09.653.129.985.113.371 0 .807 0 1.34-.08v2.124c-.627.074-1.257.112-1.889.113a5.289 5.289 0 0 1-1.743-.227 3.625 3.625 0 0 1-1.066-.519 1.851 1.851 0 0 1-.532-1.038 6.407 6.407 0 0 1-.21-1.265V15.668h-2.535v-2.044h2.519V9.148h2.47v4.476h3.002ZM50.336 23.923a6.073 6.073 0 0 1-2.21 3.962 6.018 6.018 0 0 1-4.328 1.31 6.671 6.671 0 0 1-5.199-2.077 8.265 8.265 0 0 1-1.872-5.741 8.8 8.8 0 0 1 2.018-5.936 6.304 6.304 0 0 1 5.037-2.254 5.852 5.852 0 0 1 2.865.515 5.881 5.881 0 0 1 2.268 1.836 9.944 9.944 0 0 1 1.614 5.936v.34h-11.3v.18a5.32 5.32 0 0 0 1.259 3.762 4.36 4.36 0 0 0 3.422 1.379 4.006 4.006 0 0 0 2.567-.763 4.87 4.87 0 0 0 1.47-2.449h2.389Zm-2.39-4.12a5.383 5.383 0 0 0-1.307-3.373 3.97 3.97 0 0 0-3.051-1.2 4.001 4.001 0 0 0-3.003 1.216 5.624 5.624 0 0 0-1.42 3.357h8.781ZM60.942 13.267v2.563h-.646a5.353 5.353 0 0 0-2.066.357 3.649 3.649 0 0 0-1.372.957 4.875 4.875 0 0 0-.84 1.46 7.694 7.694 0 0 0-.42 1.751c-.068.657-.1 1.318-.097 1.979v6.358h-2.47V13.624h2.357v3.244a5.525 5.525 0 0 1 2.18-2.73 5.484 5.484 0 0 1 3.374-.87ZM65.414 7.899v20.777H62.96V7.899h2.454ZM71.855 7.899v3.033h-2.438V7.899h2.438Zm0 5.725v15.052h-2.438V13.624h2.438ZM78.022 13.624v2.336a5.872 5.872 0 0 1 2.194-2.06 5.838 5.838 0 0 1 2.923-.698 4.71 4.71 0 0 1 3.81 1.395 6.12 6.12 0 0 1 1.178 4.071v10.008h-2.47v-8.872c.03-.578.03-1.158 0-1.736a5.306 5.306 0 0 0-.37-1.346 1.927 1.927 0 0 0-.986-1.038 4.39 4.39 0 0 0-1.791-.308c-2.858 0-4.279 1.8-4.279 5.417v7.883h-2.534V13.623h2.325ZM104.836 13.624v13.43a17.811 17.811 0 0 1-.194 3.016 6.235 6.235 0 0 1-.758 1.995 6.36 6.36 0 0 1-2.585 2.194 6.32 6.32 0 0 1-3.34.547 8.315 8.315 0 0 1-4.327-1.021 4.345 4.345 0 0 1-2.034-3.406h2.535c.29 1.621 1.614 2.513 3.858 2.513a4.2 4.2 0 0 0 3.326-1.167 5.876 5.876 0 0 0 1.097-3.78v-1.832a4.979 4.979 0 0 1-2.004 2.114 4.953 4.953 0 0 1-2.839.627 5.997 5.997 0 0 1-4.843-2.076 8.265 8.265 0 0 1-1.775-5.563 9.063 9.063 0 0 1 1.775-5.66 5.864 5.864 0 0 1 2.18-1.79 5.837 5.837 0 0 1 2.76-.563 5.691 5.691 0 0 1 2.793.682 4.742 4.742 0 0 1 1.937 1.93v-2.19h2.438Zm-6.877 1.752a3.73 3.73 0 0 0-3.229 1.622 7.177 7.177 0 0 0-1.098 4.233 6.281 6.281 0 0 0 1.195 3.99 4.121 4.121 0 0 0 3.229 1.57 4.1 4.1 0 0 0 3.228-1.57 7.064 7.064 0 0 0 1.179-4.33 6.136 6.136 0 0 0-1.179-4.007 3.995 3.995 0 0 0-3.325-1.508ZM78.2 32.779v20.744h-2.503V32.78h2.502ZM95.247 51.577v1.946a4.615 4.615 0 0 1-1.615.292 1.96 1.96 0 0 1-1.629-.577 1.98 1.98 0 0 1-.55-1.645 6.963 6.963 0 0 1-5.44 2.4 5.134 5.134 0 0 1-3.503-1.151 3.925 3.925 0 0 1-1.292-3.114c0-2.693 1.776-4.25 5.327-4.704.226 0 .565-.08 1.017-.113a9.069 9.069 0 0 0 3.1-.681 1.799 1.799 0 0 0 .678-1.622c0-1.622-1.146-2.482-3.406-2.482a4.23 4.23 0 0 0-2.648.714 3.242 3.242 0 0 0-1.065 2.351h-2.422a4.788 4.788 0 0 1 1.711-3.762 7.112 7.112 0 0 1 4.569-1.346 6.646 6.646 0 0 1 4.714 1.46c.337.345.587.768.726 1.232.13.4.216.814.259 1.233v8.174c-.028.397.05.795.226 1.151a.856.856 0 0 0 .79.325 2.37 2.37 0 0 0 .453-.081Zm-3.972-5.839a4.137 4.137 0 0 1-.565.357 3.124 3.124 0 0 1-.742.227l-.597.13-.775.113-.646.081-1.163.162-1.049.244c-.395.077-.769.237-1.098.47a2.788 2.788 0 0 0-.613.762c-.215.368-.321.79-.307 1.217a2.297 2.297 0 0 0 .791 1.849c.632.473 1.409.709 2.196.665a5.134 5.134 0 0 0 3.229-1.054 3.027 3.027 0 0 0 1.404-2.482l-.065-2.741ZM96.28 38.504h2.728l3.423 12.408 3.051-12.408h2.68l3.228 12.408 3.39-12.408h2.567l-4.827 15.02h-2.615l-3.084-11.906-3.05 11.905h-2.68L96.28 38.504Z"/><path fill="#303030" d="M131.182 14.857v38.699h-10.945v-2.514h8.443V15.91L115.345 2.514H2.518v48.528h62.896v2.514H0V0h116.395l14.787 14.857Z"/></svg>