<svg xmlns="http://www.w3.org/2000/svg" width="303" height="170" fill="none"><path stroke="#fff" stroke-width=".5" d="M1.069 83.655c-.583-3.808 2.687-6.43 4.236-9.596.842-1.78.346-4.192 1.3-4.86.954-.68 3.53.198 5.858 1.818.21-1.41-.693-1.546-1.746-2.287-1.524-1.052-.681-3.908-1.325-5.516-2.106-5.169 2.18-8.631 5.623-12.218 2.836-2.967 5.747-6.442 9.252-8.606 3.938-2.387 8.657-4.056 3.381-8.73a46.05 46.05 0 0 0 3.047-1.448c-4.41-1.014-10.615-10.523-10.33-14.876.26-3.76 5.425.111 7.494-1.002 1.92-1.014 3.666-2.522 4.892-4.303 1.498-2.25 5.301-1.657 7.568-1.67 5.14-.024 10.292-.47 15.395-.667 4.52-.173 8.174 1.471 12.435 2.535 2.068.52 8.658-.149 10.156 1.496 1.524 1.719 3.035 3.55 5.636 2.696 2.23-.755 3.877 1.385 5.87 1.88.323-3.005 1.475-1.311 4.001-1.596 1.833-.21 3.456-.296 5.053.866 1.14.828 2.812-.717 4.137-.16 1.276.53 1.326 2.62 2.7 3.252-.446-3.648 3.976-4.848 6.639-3.426 2.836 1.496 2.7 5.7 6.874 2.684 1.214-.866 2.167-.903 3.555-.223 1.783.89 4.137-.977 6.118-.544 1.239.272 6.651 6.69 7.407 3.326.966-4.142-2.613-5.478-.26-10.041 1.697-3.24 4.681-7.148 8.62-5.194.619.31 3.084-.94 3.666-1.088 1.833-.458 4.459-.408 6.292.037 3.654.878 7.357 1.917 8.125-4.835 9.277 1.298 7.184 1.682 13.389-.346 2.911-.198 5.933 1.99 9.079.198 1.808-1.014 5.003 2.485 5.759 4.241 2.638 6.369 5.784 4.514 7.469 7.989-1.338.816-3.939.84-4.967 1.941-.607.656 5.4 6.64 2.7 8.236 2.242.767 8.224 2.968 11.023 1.472 3.196-1.72 5.078 3.338 8.46 3.153.111.964-1.536 1.434 4.582 12.712 2.812 2.919 5.375.087 7.332-.099 3.468-.334 6.85 3.327 10.925 4.576 2.601-.013 6.192-3.117 11.456-4.477 3.047-.779 5.227 2.152 6.169 4.205 1.523 3.326 6.366 4.043 7.419 7.024 4.198-2.424 2.291-4.106 7.418-1.435 2.651 1.385 9.748 4.353 11.928 1.793 1.907 3.772 4.904 1.521 7.06 4.069 1.052 1.261 2.836 2.065 4.397 2.46 2.811.705 3.604-1.496 5.66-.741-2.515 2.41 3.059 7.716-1.425 11.018-1.263.952-4.359.531-3.22 2.93 1.499 3.13 4.768-.692 4.867 3.253-2.13-.63-5.746 1.323-4.52 4.031.409.928 7.233 3.252 3.703 5.837.731.606 1.598.779 2.527.544.446 1.496-1.288 7.32-1.945 8.397-2.08 3.388-7.282.556-10.577 1.224-1.945.383-3.604-.89-5.474.124-1.771.94-1.809 3.301-4.311 4.13-7.431 4.303-4.211 7.395-3.047 7.469-1.375 1.212.038 3.215-1.647 4.192-2.044 1.175-7.258-.037-9.723.408-2.415.445-2.737 3.055-5.263 3.252-2.973.223-6.466 1.781-7.221 4.972-1.363-2.288-4.496-2.103-6.552-.94-3.406 1.941-5.809.977-9.438 2.065-6.069 1.818-7.01 10.313-13.129 11.871.236-1.051 8.794-7.592 2.019-8.495 2.341 3.425-2.205 4.081-4.261 5.453-.73.495 1.288 6.839 1.189 7.457-.508-1.744-3.604-4.192-3.802-3.5-.21-.544 2.304-1.854-.855-3.141-2.353 10.227-5.771-.531-2.254 2.103.347-1.979.223-4.551.211-2.041.124.235-.966.507-1.697.396-.966-.136-1.796-1.744-2.106 1.101.335.197-3.121-3.97-3.084-3.661.186 1.719 1.821 2.943-8.063 1.212.582 1.002 2.849 2.844 5.314 4.365.198-1.1 1.424-2.151 2.96 1.336-.607-5.738 7.307 3.302 7.481-.136.21.272 1.325 1.978-1.028 3.932l3.369-2.015c-1.115 1.842 6.18 4.995 6.453 5.354 3.294 4.192-2.255 5.082 6.576 7.58-.334-1.706-8.025-9.422-6.502-8 1.214 1.137 4.199 3.944 5.487 4.649 1.288.718 2.514 1.249 3.604 1.509 1.102.26 2.081.26 2.874-.099.755-.359 1.337-1.051 1.671-2.189 1.945 2.263 3.184 1.571 5.426.421 2.997-1.558 6.65-.075 9.041 1.929-2.874.383-2.836 1.768-2.799 4.155.062 2.918-2.614 2.782-4.855 3.042-2.428.272-3.778.161-5.995-1.051-1.325-.742-3.196-1.905-4.818-1.262-1.623.631-.755 2.325-1.734 2.709-2.39.964-3.802 3.351-6.354 3.722-3.48.482-6.527.148-9.239 2.856-4.62 4.662-13.253 10.264-18.282 1.892 3.629.817 4.533-11.377-1.065-12.217-3.084-.446-4.707-1.559-7.32-3.117-2.44-1.446-4.706-.42-7.282-.742-3.902-.507 4.817-6.306 6.167-6.85 2.663-1.052 11.891-2.536 12.745-5.775-2.316.061-2.687-2.202-2.737-3.97-2.65 1.484-1.969 1.855-5.375.186-2.787-1.361-6.527.098-9.574.16-3.332.05-5.401.421-8.472-1.261-2.589-1.447-5.537-3.796-8.732-2.869 9.425-3.722-2.403-2.3-4.694-5.602 5.895 2.894 13.773 2.078 18.776-1.62-3.356.952-7.926 2.61-10.911-.358-2.254-2.226-.533-6.01-2.973-8.31 1.883 2.51 1.288 4.897 1.338 7.679.012 2.127-4.892.779-6.057 1.521-.656-1.237-.582-2.436.186-3.611-1.474.309-1.734 2.263-2.465 3.302-1.003 1.447-4 .074-5.524.334-6.539 1.137-5.536 7.345-9.363 11.339-.335-1.892-3.964-7.617-6.478-5.774.916 2.646 5.053 2.868 5.821 5.539.929 3.154-7.914 8.954-10.168 10.165 2.056-1.36 4.607-2.807 5.251-5.416-2.39.173-6.787 8.087-7.258 2.523-1.127 1.249-2.737 5.255.892 3.611a33.49 33.49 0 0 0-1.264 1.805c2.54.371 3.976 5.231 1.091 6.134-.818-7.717-7.234-4.069-10.739-3.191-4.545 1.113-5.573 4.427-10.689 1.002-.792-.519-6.49-3.586-2.229-4.328 4.434-.767 3.059-3.253 5.177-5.887 2.341-2.918 5.029-5.206 4.434-9.534-.545-3.796-1.127-4.699 3.555-6.405a51.78 51.78 0 0 0 1.276 3.252c2.7-5.552 10.156 3.636 14.206-.631-1.759-.532-2.452-2.114-4.112-2.807 4.756-2.362-3.555-10.041-7.481-10.573.991-1.607 1.028-7.766-1.214-4.823-.718.891-3.109-6.047-3.579-6.764-1.214-1.83-1.585-3.809-2.898-5.812-3.32-5.033-1.833 1.051-5.438-3.092-1.523-1.743-5.511-4.637-6.304-1.001-.582-3.24-2.725.828-3.344-2.3-3.666 1.731-7.79-5.417-10.999-6.418-2.539-.804-4.458 3.586-11.914 1.941-1.45-.321-3.184.05-2.676 2.028-.817 1.076-3.319.829-4.644 1.15-1.313.31-3.022.916-3.53 2.338-1.165 3.289-2.886 3.017-6.292 3.314-4.186.383-8.732-.42-11.791 3.03-4.546 5.094-6.998-1.138-11.296-2.536-2.056-.668-4.397.05-6.453.297-2.564.297-3.889-.544-6.304-.965-2.44-.42-4.868.408-7.048-1.113-3.653-2.56-4.149.668-7.493 1.51-.087-3.871-3.815-2.338-5.734-4.477-1.363-1.509-2.156-.841-3.468-1.83-1.499-1.089-1.858-2.721-4.013-3.216Z"/><path stroke="#fff" stroke-opacity=".2" stroke-width=".5" d="M1.069 83.655c-.583-3.808 2.687-6.43 4.236-9.596.842-1.78.346-4.192 1.3-4.86.954-.68 3.53.198 5.858 1.818.21-1.41-.693-1.546-1.746-2.287-1.524-1.052-.681-3.908-1.325-5.516-2.106-5.169 2.18-8.631 5.623-12.218 2.836-2.967 5.747-6.442 9.252-8.606 3.938-2.387 8.657-4.056 3.381-8.73a46.05 46.05 0 0 0 3.047-1.448c-4.41-1.014-10.615-10.523-10.33-14.876.26-3.76 5.425.111 7.494-1.002 1.92-1.014 3.666-2.522 4.892-4.303 1.498-2.25 5.301-1.657 7.568-1.67 5.14-.024 10.292-.47 15.395-.667 4.52-.173 8.174 1.471 12.435 2.535 2.068.52 8.658-.149 10.156 1.496 1.524 1.719 3.035 3.55 5.636 2.696 2.23-.755 3.877 1.385 5.87 1.88.323-3.005 1.475-1.311 4.001-1.596 1.833-.21 3.456-.296 5.053.866 1.14.828 2.812-.717 4.137-.16 1.276.53 1.326 2.62 2.7 3.252-.446-3.648 3.976-4.848 6.639-3.426 2.836 1.496 2.7 5.7 6.874 2.684 1.214-.866 2.167-.903 3.555-.223 1.783.89 4.137-.977 6.118-.544 1.239.272 6.651 6.69 7.407 3.326.966-4.142-2.613-5.478-.26-10.041 1.697-3.24 4.681-7.148 8.62-5.194.619.31 3.084-.94 3.666-1.088 1.833-.458 4.459-.408 6.292.037 3.654.878 7.357 1.917 8.125-4.835 9.277 1.298 7.184 1.682 13.389-.346 2.911-.198 5.933 1.99 9.079.198 1.808-1.014 5.003 2.485 5.759 4.241 2.638 6.369 5.784 4.514 7.469 7.989-1.338.816-3.939.84-4.967 1.941-.607.656 5.4 6.64 2.7 8.236 2.242.767 8.224 2.968 11.023 1.472 3.196-1.72 5.078 3.338 8.46 3.153.111.964-1.536 1.434 4.582 12.712 2.812 2.919 5.375.087 7.332-.099 3.468-.334 6.85 3.327 10.925 4.576 2.601-.013 6.192-3.117 11.456-4.477 3.047-.779 5.227 2.152 6.169 4.205 1.523 3.326 6.366 4.043 7.419 7.024 4.198-2.424 2.291-4.106 7.418-1.435 2.651 1.385 9.748 4.353 11.928 1.793 1.907 3.772 4.904 1.521 7.06 4.069 1.052 1.261 2.836 2.065 4.397 2.46 2.811.705 3.604-1.496 5.66-.741-2.515 2.41 3.059 7.716-1.425 11.018-1.263.952-4.359.531-3.22 2.93 1.499 3.13 4.768-.692 4.867 3.253-2.13-.63-5.746 1.323-4.52 4.031.409.928 7.233 3.252 3.703 5.837.731.606 1.598.779 2.527.544.446 1.496-1.288 7.32-1.945 8.397-2.08 3.388-7.282.556-10.577 1.224-1.945.383-3.604-.89-5.474.124-1.771.94-1.809 3.301-4.311 4.13-7.431 4.303-4.211 7.395-3.047 7.469-1.375 1.212.038 3.215-1.647 4.192-2.044 1.175-7.258-.037-9.723.408-2.415.445-2.737 3.055-5.263 3.252-2.973.223-6.466 1.781-7.221 4.972-1.363-2.288-4.496-2.103-6.552-.94-3.406 1.941-5.809.977-9.438 2.065-6.069 1.818-7.01 10.313-13.129 11.871.236-1.051 8.794-7.592 2.019-8.495 2.341 3.425-2.205 4.081-4.261 5.453-.73.495 1.288 6.839 1.189 7.457-.508-1.744-3.604-4.192-3.802-3.5-.21-.544 2.304-1.854-.855-3.141-2.353 10.227-5.771-.531-2.254 2.103.347-1.979.223-4.551.211-2.041.124.235-.966.507-1.697.396-.966-.136-1.796-1.744-2.106 1.101.335.197-3.121-3.97-3.084-3.661.186 1.719 1.821 2.943-8.063 1.212.582 1.002 2.849 2.844 5.314 4.365.198-1.1 1.424-2.151 2.96 1.336-.607-5.738 7.307 3.302 7.481-.136.21.272 1.325 1.978-1.028 3.932l3.369-2.015c-1.115 1.842 6.18 4.995 6.453 5.354 3.294 4.192-2.255 5.082 6.576 7.58-.334-1.706-8.025-9.422-6.502-8 1.214 1.137 4.199 3.944 5.487 4.649 1.288.718 2.514 1.249 3.604 1.509 1.102.26 2.081.26 2.874-.099.755-.359 1.337-1.051 1.671-2.189 1.945 2.263 3.184 1.571 5.426.421 2.997-1.558 6.65-.075 9.041 1.929-2.874.383-2.836 1.768-2.799 4.155.062 2.918-2.614 2.782-4.855 3.042-2.428.272-3.778.161-5.995-1.051-1.325-.742-3.196-1.905-4.818-1.262-1.623.631-.755 2.325-1.734 2.709-2.39.964-3.802 3.351-6.354 3.722-3.48.482-6.527.148-9.239 2.856-4.62 4.662-13.253 10.264-18.282 1.892 3.629.817 4.533-11.377-1.065-12.217-3.084-.446-4.707-1.559-7.32-3.117-2.44-1.446-4.706-.42-7.282-.742-3.902-.507 4.817-6.306 6.167-6.85 2.663-1.052 11.891-2.536 12.745-5.775-2.316.061-2.687-2.202-2.737-3.97-2.65 1.484-1.969 1.855-5.375.186-2.787-1.361-6.527.098-9.574.16-3.332.05-5.401.421-8.472-1.261-2.589-1.447-5.537-3.796-8.732-2.869 9.425-3.722-2.403-2.3-4.694-5.602 5.895 2.894 13.773 2.078 18.776-1.62-3.356.952-7.926 2.61-10.911-.358-2.254-2.226-.533-6.01-2.973-8.31 1.883 2.51 1.288 4.897 1.338 7.679.012 2.127-4.892.779-6.057 1.521-.656-1.237-.582-2.436.186-3.611-1.474.309-1.734 2.263-2.465 3.302-1.003 1.447-4 .074-5.524.334-6.539 1.137-5.536 7.345-9.363 11.339-.335-1.892-3.964-7.617-6.478-5.774.916 2.646 5.053 2.868 5.821 5.539.929 3.154-7.914 8.954-10.168 10.165 2.056-1.36 4.607-2.807 5.251-5.416-2.39.173-6.787 8.087-7.258 2.523-1.127 1.249-2.737 5.255.892 3.611a33.49 33.49 0 0 0-1.264 1.805c2.54.371 3.976 5.231 1.091 6.134-.818-7.717-7.234-4.069-10.739-3.191-4.545 1.113-5.573 4.427-10.689 1.002-.792-.519-6.49-3.586-2.229-4.328 4.434-.767 3.059-3.253 5.177-5.887 2.341-2.918 5.029-5.206 4.434-9.534-.545-3.796-1.127-4.699 3.555-6.405a51.78 51.78 0 0 0 1.276 3.252c2.7-5.552 10.156 3.636 14.206-.631-1.759-.532-2.452-2.114-4.112-2.807 4.756-2.362-3.555-10.041-7.481-10.573.991-1.607 1.028-7.766-1.214-4.823-.718.891-3.109-6.047-3.579-6.764-1.214-1.83-1.585-3.809-2.898-5.812-3.32-5.033-1.833 1.051-5.438-3.092-1.523-1.743-5.511-4.637-6.304-1.001-.582-3.24-2.725.828-3.344-2.3-3.666 1.731-7.79-5.417-10.999-6.418-2.539-.804-4.458 3.586-11.914 1.941-1.45-.321-3.184.05-2.676 2.028-.817 1.076-3.319.829-4.644 1.15-1.313.31-3.022.916-3.53 2.338-1.165 3.289-2.886 3.017-6.292 3.314-4.186.383-8.732-.42-11.791 3.03-4.546 5.094-6.998-1.138-11.296-2.536-2.056-.668-4.397.05-6.453.297-2.564.297-3.889-.544-6.304-.965-2.44-.42-4.868.408-7.048-1.113-3.653-2.56-4.149.668-7.493 1.51-.087-3.871-3.815-2.338-5.734-4.477-1.363-1.509-2.156-.841-3.468-1.83-1.499-1.089-1.858-2.721-4.013-3.216Z"/></svg>