<svg xmlns="http://www.w3.org/2000/svg" width="87" height="50" fill="none"><path fill="#fff" d="M.02 25.1c-.168-1.11.777-1.876 1.224-2.8.244-.519.1-1.222.376-1.417.276-.198 1.02.058 1.693.53.061-.41-.2-.45-.504-.667-.44-.307-.197-1.14-.383-1.61-.61-1.507.63-2.517 1.625-3.564.82-.865 1.66-1.88 2.674-2.51 1.138-.697 2.502-1.184.977-2.548.305-.13.595-.274.88-.422-1.274-.296-3.067-3.07-2.985-4.34.075-1.097 1.568.032 2.166-.292a4.024 4.024 0 0 0 1.414-1.256c.433-.656 1.532-.483 2.188-.487 1.485-.007 2.974-.137 4.45-.195 1.306-.05 2.362.43 3.594.74.597.151 2.502-.043 2.935.436.44.502.877 1.036 1.629.787.644-.22 1.12.404 1.697.548.093-.876.426-.382 1.156-.465.53-.061.999-.087 1.46.252.33.242.813-.209 1.196-.046.37.155.383.764.78.948-.128-1.064 1.15-1.414 1.92-.999.82.437.78 1.663 1.986.783.351-.253.627-.263 1.028-.065.515.26 1.196-.285 1.768-.159.358.08 1.923 1.952 2.141.97.28-1.208-.755-1.598-.075-2.929.49-.945 1.353-2.085 2.492-1.515.178.09.891-.274 1.06-.318.53-.133 1.288-.119 1.818.011 1.056.256 2.126.56 2.348-1.41 2.682.378 2.077.49 3.87-.101.841-.058 1.715.58 2.624.057.523-.296 1.447.725 1.665 1.238.762 1.858 1.672 1.317 2.159 2.33-.387.239-1.139.246-1.436.567-.175.191 1.56 1.937.78 2.403.648.223 2.377.866 3.187.429.923-.502 1.467.974 2.445.92.032.281-.444.418 1.324 3.709.813.851 1.554.025 2.12-.03 1.002-.096 1.98.971 3.157 1.336.752-.004 1.79-.91 3.311-1.306.88-.228 1.511.628 1.783 1.226.44.971 1.84 1.18 2.145 2.05 1.213-.708.662-1.198 2.144-.419.766.404 2.817 1.27 3.447.523.552 1.1 1.418.444 2.04 1.187.305.368.82.603 1.272.718.812.206 1.041-.436 1.636-.216-.727.703.884 2.251-.412 3.214-.365.278-1.26.155-.93.855.432.913 1.377-.202 1.406.95-.616-.185-1.661.385-1.307 1.175.119.271 2.091.95 1.07 1.703a.786.786 0 0 0 .731.159c.129.437-.372 2.136-.562 2.45-.601.988-2.105.162-3.057.357-.562.112-1.042-.26-1.582.036-.512.274-.523.963-1.246 1.205-2.148 1.256-1.218 2.157-.881 2.18-.397.353.01.937-.476 1.222-.59.343-2.098-.01-2.81.12-.698.13-.791.89-1.522.948-.859.065-1.868.52-2.087 1.45-.394-.667-1.3-.613-1.894-.274-.984.567-1.678.285-2.727.603-1.755.53-2.027 3.009-3.795 3.463.068-.306 2.542-2.215.583-2.478.677.999-.637 1.19-1.231 1.59-.211.145.372 1.996.343 2.176-.146-.509-1.041-1.223-1.098-1.02-.061-.16.665-.542-.247-.917-.68 2.983-1.669-.155-.652.613.1-.577.064-1.328.06-.595.037.068-.278.148-.49.115-.279-.04-.519-.508-.608.321.096.058-.902-1.158-.892-1.067.054.501.527.858-2.33.353.168.292.823.83 1.536 1.274.057-.322.411-.628.855.39-.175-1.675 2.112.962 2.163-.04.06.079.383.577-.298 1.147l.974-.588c-.322.537 1.786 1.457 1.865 1.562.953 1.223-.651 1.483 1.901 2.212-.097-.498-2.32-2.75-1.88-2.335.352.332 1.214 1.151 1.587 1.357.372.21.726.364 1.041.44.319.076.602.076.831-.029.218-.105.387-.307.483-.639.562.66.92.459 1.568.123.867-.454 1.923-.021 2.614.563-.831.112-.82.516-.81 1.212.018.852-.755.812-1.403.888-.702.08-1.092.047-1.733-.307-.383-.216-.923-.555-1.392-.368-.47.184-.218.678-.501.79-.691.282-1.1.978-1.837 1.086-1.006.14-1.886.044-2.67.834-1.336 1.36-3.83 2.994-5.284.552 1.049.238 1.31-3.32-.308-3.565-.892-.13-1.36-.454-2.116-.91-.705-.421-1.36-.122-2.105-.216-1.128-.148 1.393-1.84 1.783-1.998.77-.307 3.437-.74 3.684-1.685-.67.018-.777-.642-.791-1.158-.767.433-.57.54-1.554.054-.806-.397-1.887.029-2.767.047-.963.014-1.561.122-2.45-.368-.747-.422-1.6-1.108-2.523-.837 2.724-1.086-.694-.671-1.357-1.635 1.704.845 3.981.606 5.427-.472-.97.278-2.29.761-3.153-.105-.652-.65-.154-1.753-.86-2.424.544.732.373 1.428.387 2.24.003.62-1.414.227-1.75.444-.19-.36-.169-.71.053-1.054-.426.09-.501.66-.712.964-.29.422-1.157.021-1.597.097-1.89.332-1.6 2.143-2.706 3.309-.097-.552-1.146-2.223-1.873-1.685.265.772 1.46.837 1.683 1.616.268.92-2.288 2.612-2.94 2.966.595-.397 1.333-.82 1.519-1.58-.691.05-1.962 2.359-2.098.735-.326.365-.791 1.534.258 1.054-.126.17-.247.343-.366.527.734.108 1.15 1.526.316 1.789-.237-2.251-2.091-1.187-3.104-.93-1.314.324-1.611 1.29-3.09.291-.229-.151-1.876-1.046-.644-1.262 1.282-.224.884-.95 1.496-1.718.677-.851 1.454-1.519 1.282-2.781-.158-1.108-.326-1.371 1.027-1.87.115.322.233.636.37.95.78-1.62 2.935 1.06 4.105-.184-.508-.155-.709-.617-1.188-.82 1.374-.688-1.028-2.929-2.163-3.084.287-.469.297-2.266-.35-1.407-.208.26-.899-1.764-1.035-1.973-.35-.534-.458-1.112-.838-1.696-.96-1.468-.53.307-1.571-.902-.44-.509-1.593-1.353-1.822-.292-.169-.945-.788.241-.967-.671-1.06.505-2.252-1.58-3.179-1.873-.734-.234-1.289 1.047-3.444.567-.419-.094-.92.014-.773.591-.236.314-.96.242-1.343.336-.379.09-.873.267-1.02.682-.336.96-.834.88-1.818.967-1.21.111-2.524-.123-3.408.884-1.314 1.486-2.023-.332-3.265-.74-.595-.195-1.271.014-1.865.087-.741.086-1.125-.16-1.823-.282-.705-.123-1.407.12-2.037-.325-1.056-.746-1.199.195-2.165.44-.026-1.129-1.103-.681-1.658-1.305-.394-.44-.623-.246-1.002-.534-.433-.318-.537-.794-1.16-.938Z"/><circle cx="18.993" cy="11.401" r=".613" fill="#090909"/><circle cx="18.993" cy="11.401" r=".613" fill="#090909"/><circle cx="18.993" cy="11.401" r=".613" fill="#090909"/><circle cx="18.993" cy="11.401" r=".613" fill="#090909"/><circle cx="11.641" cy="18.753" r=".613" fill="#090909"/><circle cx="11.641" cy="18.753" r=".613" fill="#090909"/><circle cx="11.641" cy="18.753" r=".613" fill="#090909"/><circle cx="11.641" cy="18.753" r=".613" fill="#090909"/><circle cx="37.373" cy="13.852" r=".613" fill="#090909"/><circle cx="37.373" cy="13.852" r=".613" fill="#090909"/><circle cx="37.373" cy="13.852" r=".613" fill="#090909"/><circle cx="37.373" cy="13.852" r=".613" fill="#090909"/><circle cx="74.134" cy="24.88" r=".613" fill="#090909"/><circle cx="74.134" cy="24.88" r=".613" fill="#090909"/><circle cx="74.134" cy="24.88" r=".613" fill="#090909"/><circle cx="74.134" cy="24.88" r=".613" fill="#090909"/><circle cx="53.303" cy="29.782" r=".613" fill="#090909"/><circle cx="53.303" cy="29.782" r=".613" fill="#090909"/><circle cx="53.303" cy="29.782" r=".613" fill="#090909"/><circle cx="53.303" cy="29.782" r=".613" fill="#090909"/></svg>