<svg xmlns="http://www.w3.org/2000/svg" width="591" height="412" fill="none"><path stroke="#fff" stroke-width=".5" d="M1.167 202.718c-1.42-9.295 6.555-15.693 10.33-23.419 2.054-4.345.845-10.23 3.17-11.86 2.326-1.66 8.608.483 14.286 4.436.514-3.44-1.69-3.772-4.258-5.583-3.715-2.565-1.661-9.536-3.232-13.46-5.134-12.615 5.316-21.065 13.713-29.817 6.916-7.243 14.013-15.723 22.56-21.005 9.605-5.824 21.113-9.898 8.246-21.306 2.568-1.086 5.014-2.294 7.43-3.53-10.752-2.476-25.884-25.683-25.19-36.306.635-9.175 13.23.271 18.274-2.445 4.681-2.474 8.94-6.156 11.93-10.502 3.654-5.493 12.927-4.044 18.454-4.074 12.534-.06 25.098-1.147 37.542-1.63 11.024-.423 19.934 3.591 30.323 6.187 5.044 1.267 21.112-.362 24.767 3.651 3.715 4.195 7.4 8.662 13.743 6.58 5.436-1.842 9.453 3.38 14.316 4.587.785-7.334 3.594-3.2 9.755-3.894 4.47-.513 8.426-.724 12.323 2.113 2.778 2.022 6.856-1.75 10.088-.392 3.111 1.297 3.231 6.398 6.584 7.937-1.088-8.903 9.695-11.83 16.189-8.36 6.916 3.652 6.584 13.913 16.762 6.55 2.96-2.113 5.285-2.204 8.668-.544 4.349 2.173 10.088-2.384 14.921-1.328 3.02.664 16.218 16.327 18.061 8.118 2.355-10.11-6.373-13.37-.634-24.505 4.137-7.907 11.416-17.444 21.02-12.676 1.51.755 7.521-2.293 8.941-2.655 4.47-1.117 10.873-.996 15.343.09 8.91 2.143 17.94 4.678 19.813-11.8 22.622 3.17 17.517 4.105 32.649-.845 7.098-.483 14.467 4.859 22.139.483 4.409-2.475 12.202 6.066 14.044 10.351 6.433 15.543 14.105 11.016 18.212 19.496-3.262 1.992-9.604 2.052-12.111 4.738-1.48 1.6 13.168 16.207 6.584 20.1 5.466 1.87 20.055 7.243 26.881 3.591 7.792-4.195 12.383 8.148 20.629 7.696.271 2.354-3.746 3.5 11.174 31.024 6.856 7.122 13.108.211 17.88-.242 8.457-.814 16.703 8.118 26.639 11.167 6.343-.031 15.101-7.606 27.938-10.925 7.429-1.901 12.746 5.251 15.041 10.261 3.715 8.118 15.524 9.868 18.092 17.141 10.238-5.915 5.587-10.019 18.091-3.5 6.463 3.38 23.769 10.623 29.085 4.376 4.651 9.204 11.96 3.712 17.216 9.929 2.567 3.078 6.916 5.04 10.722 6.005 6.856 1.721 8.789-3.652 13.803-1.811-6.132 5.885 7.459 18.832-3.474 26.89-3.081 2.324-10.631 1.298-7.852 7.152 3.654 7.636 11.627-1.69 11.868 7.938-5.194-1.54-14.013 3.229-11.023 9.838.996 2.264 17.639 7.937 9.031 14.245 1.782 1.478 3.895 1.901 6.16 1.327 1.088 3.652-3.14 17.867-4.741 20.492-5.074 8.269-17.759 1.358-25.793 2.988-4.742.935-8.789-2.173-13.349.302-4.319 2.293-4.411 8.058-10.512 10.08-18.121 10.502-10.269 18.047-7.43 18.228-3.352 2.957.091 7.846-4.016 10.23-4.984 2.868-17.699-.09-23.71.996-5.889 1.087-6.674 7.455-12.836 7.937-7.248.544-15.766 4.346-17.608 12.132-3.322-5.583-10.963-5.13-15.977-2.293-8.306 4.738-14.165 2.384-23.014 5.04-14.8 4.436-17.095 25.169-32.015 28.972.574-2.565 21.443-18.53 4.923-20.733 5.708 8.359-5.376 9.959-10.39 13.309-1.782 1.207 3.14 16.689 2.899 18.198-1.239-4.256-8.789-10.231-9.272-8.541-.513-1.328 5.618-4.527-2.084-7.665-5.738 24.958-14.075-1.298-5.497 5.13.846-4.829.544-11.106.513-4.98.302.574-2.355 1.238-4.137.966-2.356-.332-4.38-4.255-5.135 2.686.815.483-7.611-9.688-7.52-8.933.453 4.195 4.439 7.183-19.662 2.958 1.419 2.444 6.946 6.941 12.956 10.653.483-2.686 3.474-5.251 7.219 3.259-1.48-14.003 17.82 8.058 18.243-.332.513.664 3.231 4.829-2.507 9.597l8.215-4.919c-2.718 4.497 15.071 12.192 15.735 13.068 8.034 10.23-5.496 12.403 16.038 18.499-.815-4.164-19.571-22.996-15.856-19.525 2.96 2.776 10.239 9.627 13.38 11.347 3.141 1.75 6.13 3.048 8.788 3.682 2.688.634 5.075.633 7.008-.242 1.842-.875 3.261-2.565 4.077-5.342 4.742 5.523 7.763 3.833 13.229 1.027 7.309-3.803 16.219-.181 22.048 4.708-7.007.935-6.916 4.315-6.826 10.14.151 7.122-6.372 6.79-11.839 7.424-5.92.664-9.212.392-14.618-2.565-3.232-1.811-7.793-4.648-11.75-3.079-3.956 1.539-1.842 5.674-4.228 6.61-5.829 2.354-9.272 8.178-15.494 9.084-8.487 1.177-15.917.362-22.531 6.971-11.266 11.378-32.317 25.049-44.58 4.617 8.85 1.992 11.055-27.765-2.597-29.817-7.521-1.086-11.477-3.802-17.85-7.605-5.95-3.531-11.477-1.026-17.759-1.811-9.514-1.237 11.749-15.391 15.041-16.719 6.493-2.565 28.994-6.187 31.078-14.094-5.648.151-6.553-5.371-6.674-9.687-6.463 3.621-4.803 4.527-13.109.453-6.795-3.32-15.916.241-23.346.392-8.124.121-13.169 1.026-20.659-3.078-6.313-3.531-13.5-9.265-21.293-7.002 22.985-9.084-5.859-5.613-11.447-13.671 14.377 7.062 33.586 5.07 45.788-3.953-8.185 2.323-19.33 6.367-26.608-.876-5.497-5.432-1.3-14.667-7.25-20.28 4.591 6.126 3.141 11.951 3.262 18.741.03 5.191-11.929 1.901-14.768 3.712-1.601-3.018-1.42-5.945.452-8.812-3.594.754-4.228 5.523-6.01 8.058-2.447 3.531-9.755.181-13.47.815-15.947 2.776-13.501 17.926-22.834 27.674-.816-4.618-9.665-18.59-15.796-14.094 2.235 6.459 12.322 7.002 14.195 13.52 2.265 7.696-19.299 21.85-24.796 24.808 5.014-3.32 11.236-6.851 12.806-13.219-5.829.423-16.552 19.737-17.7 6.157-2.748 3.048-6.674 12.826 2.176 8.812a81.328 81.328 0 0 0-3.082 4.406c6.192.906 9.696 12.766 2.659 14.969-1.994-18.832-17.639-9.929-26.186-7.786-11.085 2.716-13.592 10.804-26.066 2.444-1.933-1.267-15.826-8.751-5.436-10.562 10.813-1.871 7.46-7.937 12.625-14.366 5.708-7.122 12.262-12.705 10.813-23.268-1.329-9.265-2.748-11.468 8.668-15.632.967 2.686 1.963 5.311 3.111 7.937 6.584-13.551 24.767 8.872 34.643-1.539-4.289-1.298-5.98-5.161-10.027-6.851 11.597-5.764-8.669-24.506-18.243-25.803 2.416-3.924 2.506-18.953-2.961-11.77-1.751 2.173-7.581-14.758-8.728-16.508-2.96-4.467-3.866-9.295-7.067-14.184-8.094-12.283-4.47 2.565-13.259-7.545-3.715-4.255-13.44-11.317-15.373-2.445-1.42-7.907-6.646 2.022-8.156-5.613-8.94 4.225-18.997-13.218-26.82-15.663-6.191-1.962-10.872 8.752-29.054 4.738-3.534-.785-7.762.121-6.524 4.949-1.993 2.626-8.094 2.023-11.326 2.807-3.202.755-7.37 2.234-8.608 5.704-2.839 8.028-7.037 7.364-15.343 8.088-10.208.936-21.294-1.026-28.754 7.394-11.084 12.434-17.064-2.776-27.544-6.187-5.014-1.629-10.722.121-15.736.724-6.252.725-9.484-1.327-15.373-2.353-5.95-1.026-11.87.995-17.186-2.717-8.91-6.247-10.118 1.63-18.273 3.682-.211-9.446-9.302-5.704-13.983-10.925-3.322-3.681-5.255-2.052-8.457-4.466-3.654-2.656-4.53-6.639-9.786-7.847Z"/><path stroke="#000" stroke-opacity=".5" stroke-width=".5" d="M1.167 202.718c-1.42-9.295 6.555-15.693 10.33-23.419 2.054-4.345.845-10.23 3.17-11.86 2.326-1.66 8.608.483 14.286 4.436.514-3.44-1.69-3.772-4.258-5.583-3.715-2.565-1.661-9.536-3.232-13.46-5.134-12.615 5.316-21.065 13.713-29.817 6.916-7.243 14.013-15.723 22.56-21.005 9.605-5.824 21.113-9.898 8.246-21.306 2.568-1.086 5.014-2.294 7.43-3.53-10.752-2.476-25.884-25.683-25.19-36.306.635-9.175 13.23.271 18.274-2.445 4.681-2.474 8.94-6.156 11.93-10.502 3.654-5.493 12.927-4.044 18.454-4.074 12.534-.06 25.098-1.147 37.542-1.63 11.024-.423 19.934 3.591 30.323 6.187 5.044 1.267 21.112-.362 24.767 3.651 3.715 4.195 7.4 8.662 13.743 6.58 5.436-1.842 9.453 3.38 14.316 4.587.785-7.334 3.594-3.2 9.755-3.894 4.47-.513 8.426-.724 12.323 2.113 2.778 2.022 6.856-1.75 10.088-.392 3.111 1.297 3.231 6.398 6.584 7.937-1.088-8.903 9.695-11.83 16.189-8.36 6.916 3.652 6.584 13.913 16.762 6.55 2.96-2.113 5.285-2.204 8.668-.544 4.349 2.173 10.088-2.384 14.921-1.328 3.02.664 16.218 16.327 18.061 8.118 2.355-10.11-6.373-13.37-.634-24.505 4.137-7.907 11.416-17.444 21.02-12.676 1.51.755 7.521-2.293 8.941-2.655 4.47-1.117 10.873-.996 15.343.09 8.91 2.143 17.94 4.678 19.813-11.8 22.622 3.17 17.517 4.105 32.649-.845 7.098-.483 14.467 4.859 22.139.483 4.409-2.475 12.202 6.066 14.044 10.351 6.433 15.543 14.105 11.016 18.212 19.496-3.262 1.992-9.604 2.052-12.111 4.738-1.48 1.6 13.168 16.207 6.584 20.1 5.466 1.87 20.055 7.243 26.881 3.591 7.792-4.195 12.383 8.148 20.629 7.696.271 2.354-3.746 3.5 11.174 31.024 6.856 7.122 13.108.211 17.88-.242 8.457-.814 16.703 8.118 26.639 11.167 6.343-.031 15.101-7.606 27.938-10.925 7.429-1.901 12.746 5.251 15.041 10.261 3.715 8.118 15.524 9.868 18.092 17.141 10.238-5.915 5.587-10.019 18.091-3.5 6.463 3.38 23.769 10.623 29.085 4.376 4.651 9.204 11.96 3.712 17.216 9.929 2.567 3.078 6.916 5.04 10.722 6.005 6.856 1.721 8.789-3.652 13.803-1.811-6.132 5.885 7.459 18.832-3.474 26.89-3.081 2.324-10.631 1.298-7.852 7.152 3.654 7.636 11.627-1.69 11.868 7.938-5.194-1.54-14.013 3.229-11.023 9.838.996 2.264 17.639 7.937 9.031 14.245 1.782 1.478 3.895 1.901 6.16 1.327 1.088 3.652-3.14 17.867-4.741 20.492-5.074 8.269-17.759 1.358-25.793 2.988-4.742.935-8.789-2.173-13.349.302-4.319 2.293-4.411 8.058-10.512 10.08-18.121 10.502-10.269 18.047-7.43 18.228-3.352 2.957.091 7.846-4.016 10.23-4.984 2.868-17.699-.09-23.71.996-5.889 1.087-6.674 7.455-12.836 7.937-7.248.544-15.766 4.346-17.608 12.132-3.322-5.583-10.963-5.13-15.977-2.293-8.306 4.738-14.165 2.384-23.014 5.04-14.8 4.436-17.095 25.169-32.015 28.972.574-2.565 21.443-18.53 4.923-20.733 5.708 8.359-5.376 9.959-10.39 13.309-1.782 1.207 3.14 16.689 2.899 18.198-1.239-4.256-8.789-10.231-9.272-8.541-.513-1.328 5.618-4.527-2.084-7.665-5.738 24.958-14.075-1.298-5.497 5.13.846-4.829.544-11.106.513-4.98.302.574-2.355 1.238-4.137.966-2.356-.332-4.38-4.255-5.135 2.686.815.483-7.611-9.688-7.52-8.933.453 4.195 4.439 7.183-19.662 2.958 1.419 2.444 6.946 6.941 12.956 10.653.483-2.686 3.474-5.251 7.219 3.259-1.48-14.003 17.82 8.058 18.243-.332.513.664 3.231 4.829-2.507 9.597l8.215-4.919c-2.718 4.497 15.071 12.192 15.735 13.068 8.034 10.23-5.496 12.403 16.038 18.499-.815-4.164-19.571-22.996-15.856-19.525 2.96 2.776 10.239 9.627 13.38 11.347 3.141 1.75 6.13 3.048 8.788 3.682 2.688.634 5.075.633 7.008-.242 1.842-.875 3.261-2.565 4.077-5.342 4.742 5.523 7.763 3.833 13.229 1.027 7.309-3.803 16.219-.181 22.048 4.708-7.007.935-6.916 4.315-6.826 10.14.151 7.122-6.372 6.79-11.839 7.424-5.92.664-9.212.392-14.618-2.565-3.232-1.811-7.793-4.648-11.75-3.079-3.956 1.539-1.842 5.674-4.228 6.61-5.829 2.354-9.272 8.178-15.494 9.084-8.487 1.177-15.917.362-22.531 6.971-11.266 11.378-32.317 25.049-44.58 4.617 8.85 1.992 11.055-27.765-2.597-29.817-7.521-1.086-11.477-3.802-17.85-7.605-5.95-3.531-11.477-1.026-17.759-1.811-9.514-1.237 11.749-15.391 15.041-16.719 6.493-2.565 28.994-6.187 31.078-14.094-5.648.151-6.553-5.371-6.674-9.687-6.463 3.621-4.803 4.527-13.109.453-6.795-3.32-15.916.241-23.346.392-8.124.121-13.169 1.026-20.659-3.078-6.313-3.531-13.5-9.265-21.293-7.002 22.985-9.084-5.859-5.613-11.447-13.671 14.377 7.062 33.586 5.07 45.788-3.953-8.185 2.323-19.33 6.367-26.608-.876-5.497-5.432-1.3-14.667-7.25-20.28 4.591 6.126 3.141 11.951 3.262 18.741.03 5.191-11.929 1.901-14.768 3.712-1.601-3.018-1.42-5.945.452-8.812-3.594.754-4.228 5.523-6.01 8.058-2.447 3.531-9.755.181-13.47.815-15.947 2.776-13.501 17.926-22.834 27.674-.816-4.618-9.665-18.59-15.796-14.094 2.235 6.459 12.322 7.002 14.195 13.52 2.265 7.696-19.299 21.85-24.796 24.808 5.014-3.32 11.236-6.851 12.806-13.219-5.829.423-16.552 19.737-17.7 6.157-2.748 3.048-6.674 12.826 2.176 8.812a81.328 81.328 0 0 0-3.082 4.406c6.192.906 9.696 12.766 2.659 14.969-1.994-18.832-17.639-9.929-26.186-7.786-11.085 2.716-13.592 10.804-26.066 2.444-1.933-1.267-15.826-8.751-5.436-10.562 10.813-1.871 7.46-7.937 12.625-14.366 5.708-7.122 12.262-12.705 10.813-23.268-1.329-9.265-2.748-11.468 8.668-15.632.967 2.686 1.963 5.311 3.111 7.937 6.584-13.551 24.767 8.872 34.643-1.539-4.289-1.298-5.98-5.161-10.027-6.851 11.597-5.764-8.669-24.506-18.243-25.803 2.416-3.924 2.506-18.953-2.961-11.77-1.751 2.173-7.581-14.758-8.728-16.508-2.96-4.467-3.866-9.295-7.067-14.184-8.094-12.283-4.47 2.565-13.259-7.545-3.715-4.255-13.44-11.317-15.373-2.445-1.42-7.907-6.646 2.022-8.156-5.613-8.94 4.225-18.997-13.218-26.82-15.663-6.191-1.962-10.872 8.752-29.054 4.738-3.534-.785-7.762.121-6.524 4.949-1.993 2.626-8.094 2.023-11.326 2.807-3.202.755-7.37 2.234-8.608 5.704-2.839 8.028-7.037 7.364-15.343 8.088-10.208.936-21.294-1.026-28.754 7.394-11.084 12.434-17.064-2.776-27.544-6.187-5.014-1.629-10.722.121-15.736.724-6.252.725-9.484-1.327-15.373-2.353-5.95-1.026-11.87.995-17.186-2.717-8.91-6.247-10.118 1.63-18.273 3.682-.211-9.446-9.302-5.704-13.983-10.925-3.322-3.681-5.255-2.052-8.457-4.466-3.654-2.656-4.53-6.639-9.786-7.847Z"/></svg>