<?xml version="1.0" standalone="no"?>
<!DOCTYPE svg PUBLIC "-//W3C//DTD SVG 20010904//EN"
 "http://www.w3.org/TR/2001/REC-SVG-20010904/DTD/svg10.dtd">
<svg version="1.0" xmlns="http://www.w3.org/2000/svg"
 width="856.000000pt" height="856.000000pt" viewBox="0 0 856.000000 856.000000"
 preserveAspectRatio="xMidYMid meet">
<metadata>
Created by potrace 1.14, written by Peter Selinger 2001-2017
</metadata>
<g transform="translate(0.000000,856.000000) scale(0.100000,-0.100000)"
fill="#000000" stroke="none">
<path d="M5472 8546 c-3 -6 -7 -15 -8 -21 -1 -5 -9 -29 -18 -53 -8 -23 -16
-46 -17 -50 -3 -11 -4 -16 -79 -247 -40 -121 -73 -224 -74 -230 -1 -5 -28 -89
-60 -185 -32 -96 -59 -179 -61 -185 -1 -5 -5 -17 -8 -25 -18 -48 -80 -247 -80
-257 0 -7 -5 -13 -10 -13 -6 0 -8 -3 -5 -6 4 -3 -5 -38 -19 -77 -13 -40 -26
-76 -27 -82 -2 -5 -6 -17 -9 -25 -7 -19 -111 -343 -112 -350 0 -3 -9 -30 -20
-60 -10 -30 -20 -59 -21 -65 -3 -13 -163 -505 -171 -525 -3 -8 -7 -19 -8 -25
0 -5 -4 -17 -8 -25 -3 -8 -27 -80 -53 -160 -25 -80 -62 -192 -81 -250 -19 -58
-36 -109 -37 -115 -1 -5 -5 -16 -9 -22 -5 -7 -6 -13 -3 -13 3 0 -2 -17 -10
-37 -9 -20 -17 -44 -19 -52 -2 -9 -33 -108 -70 -220 -37 -112 -68 -208 -70
-215 -1 -6 -5 -18 -8 -26 -3 -8 -22 -67 -42 -130 -20 -63 -39 -122 -42 -130
-4 -8 -7 -18 -8 -22 -2 -5 -3 -9 -5 -10 -1 -2 -3 -10 -5 -18 -2 -8 -12 -41
-23 -72 l-19 -58 603 0 c396 0 604 3 604 10 0 15 0 17 11 52 13 42 57 201 64
230 3 13 19 73 35 133 17 61 33 118 35 128 2 9 16 60 31 112 l27 95 658 0
c363 -1 659 -4 660 -8 0 -4 2 -14 4 -22 2 -8 7 -26 10 -40 3 -14 8 -36 11 -49
3 -14 7 -28 10 -33 3 -5 7 -18 10 -31 2 -12 20 -80 40 -152 19 -71 37 -139 38
-150 2 -11 4 -20 5 -20 2 0 4 -7 6 -15 4 -19 24 -100 30 -120 2 -8 10 -39 17
-67 l13 -53 598 0 598 0 -6 23 c-12 42 -38 122 -46 142 -4 11 -31 92 -59 180
-28 88 -55 169 -60 180 -7 18 -69 205 -75 230 -1 6 -5 17 -8 25 -3 8 -38 114
-77 235 -39 121 -75 229 -80 240 -9 21 -24 68 -22 72 1 2 -5 18 -14 38 -8 19
-15 38 -15 42 -2 10 -4 18 -25 83 -10 30 -19 57 -19 60 -1 3 -4 12 -8 20 -7
17 -91 272 -92 280 0 3 -27 84 -59 180 -32 96 -59 180 -60 185 -2 6 -6 17 -9
25 -5 13 -49 147 -52 160 -1 3 -4 12 -8 20 -9 25 -68 204 -72 220 -4 17 -133
406 -142 430 -3 8 -7 20 -8 25 -2 6 -18 55 -36 110 -18 55 -33 103 -33 107 -1
3 -4 10 -8 14 -5 4 -8 18 -8 30 0 13 -4 25 -9 28 -5 3 -11 18 -14 33 -3 16
-17 62 -32 103 -15 41 -28 82 -30 90 -2 8 -13 42 -25 75 -11 33 -23 67 -25 75
-1 8 -20 65 -40 125 -20 61 -38 118 -40 127 -2 9 -8 25 -14 36 -10 18 -33 19
-736 19 -512 0 -728 -3 -733 -11z m763 -766 c3 -19 10 -51 15 -71 6 -21 15
-59 20 -85 6 -27 13 -60 16 -74 3 -14 7 -32 9 -40 2 -8 4 -15 5 -15 1 0 3 -9
5 -20 2 -11 14 -56 25 -100 11 -44 22 -87 24 -95 2 -8 14 -53 25 -100 12 -47
24 -93 26 -103 2 -9 6 -21 10 -26 3 -5 7 -22 9 -38 3 -15 23 -98 46 -183 74
-279 131 -494 140 -530 5 -19 14 -53 20 -75 18 -69 19 -73 7 -77 -18 -5 -836
-2 -841 3 -5 4 58 264 71 299 9 22 11 31 18 65 3 17 9 39 12 50 4 11 8 25 9
30 1 6 16 64 34 129 17 66 33 126 35 135 2 9 11 41 19 72 8 30 17 66 19 80 2
13 6 31 10 39 8 22 20 74 31 133 2 12 5 23 5 25 1 1 1 4 1 7 1 3 7 26 15 52 8
27 16 59 18 73 3 14 10 45 17 70 7 25 14 57 15 72 2 15 9 46 15 70 7 24 14 52
16 63 2 11 6 31 9 45 3 14 7 34 9 45 3 11 12 53 20 93 9 40 16 76 17 80 1 9
16 -53 24 -98z"/>
<path d="M291 8539 c-16 -6 -17 -83 -15 -1320 1 -723 5 -1343 8 -1379 5 -55
18 -134 41 -255 14 -74 72 -247 102 -305 7 -14 13 -28 13 -32 0 -4 23 -46 50
-92 179 -303 434 -505 785 -621 28 -9 57 -18 65 -20 8 -2 33 -8 55 -13 22 -6
51 -13 65 -16 14 -3 36 -7 50 -10 23 -5 45 -9 135 -21 103 -13 183 -17 345
-17 204 -1 294 6 455 33 33 6 69 12 80 13 11 2 40 9 65 16 25 7 52 14 61 15 9
2 39 11 65 20 27 9 54 18 59 19 19 3 150 60 165 71 8 6 29 17 45 24 17 7 62
34 100 59 248 163 419 379 534 672 28 74 52 150 56 180 1 8 5 25 9 37 8 24 12
44 26 128 16 88 19 117 25 254 4 69 8 128 11 132 2 4 0 10 -6 14 -6 4 -8 10
-5 15 7 12 12 460 5 460 -3 0 -3 108 0 240 3 132 3 240 0 240 -3 0 -3 108 0
240 3 132 3 240 0 240 -3 0 -3 108 0 240 3 132 3 240 0 240 -3 0 -3 107 0 239
3 131 4 245 2 254 -2 12 -9 13 -32 7 -17 -5 -32 -5 -34 -2 -2 4 -22 6 -43 4
-21 -1 -42 -3 -48 -3 -20 1 -221 1 -235 1 -8 0 -62 0 -120 0 -58 0 -112 0
-120 0 -8 0 -62 0 -120 0 -58 0 -112 0 -120 0 -8 -1 -49 0 -90 0 -41 1 -88 1
-105 1 l-30 -1 -1 -1243 c0 -1199 -3 -1346 -23 -1439 -6 -24 -12 -54 -15 -68
-46 -228 -201 -391 -406 -425 -19 -3 -47 -8 -61 -11 -21 -4 -169 -6 -234 -3
-11 0 -53 9 -93 20 -192 50 -309 161 -377 358 -20 58 -49 194 -55 261 0 8 -2
583 -3 1277 -2 694 -6 1265 -9 1269 -5 5 -55 6 -178 4 -8 0 -62 0 -120 0 -58
0 -112 0 -120 0 -8 0 -62 0 -120 0 -58 0 -112 0 -120 0 -8 0 -62 0 -120 0 -58
0 -112 0 -120 -1 -8 0 -48 1 -88 3 -40 2 -81 0 -91 -3z"/>
<path d="M276 2776 c1 -732 5 -1349 8 -1371 5 -37 9 -72 22 -165 3 -19 7 -43
10 -52 3 -9 6 -25 8 -35 31 -157 120 -366 223 -521 61 -92 228 -267 303 -317
25 -16 47 -32 50 -35 34 -38 325 -170 427 -195 10 -3 45 -11 78 -19 186 -46
330 -61 590 -60 279 0 437 17 620 66 22 5 45 11 50 13 6 1 17 5 25 8 8 3 33
11 55 18 111 33 279 118 386 195 75 54 216 184 264 244 47 59 95 129 95 139 0
6 5 11 10 11 6 0 10 4 10 10 0 5 13 31 28 57 16 26 29 51 30 56 1 4 8 20 16
35 7 15 17 38 21 52 4 14 13 39 21 55 18 41 49 147 47 163 0 6 3 12 9 12 5 0
7 4 4 8 -3 5 0 26 6 48 5 21 12 48 13 59 12 90 17 123 21 145 3 14 7 102 10
195 3 94 7 178 9 188 2 9 0 17 -3 17 -4 0 -5 180 -2 400 3 220 3 400 0 400 -3
0 -3 108 0 240 3 132 3 240 0 240 -3 0 -3 108 0 240 3 132 3 240 0 240 -3 0
-3 108 0 240 3 132 3 240 0 240 -3 0 -5 15 -5 33 l0 32 -542 1 -543 2 -1 -22
c-1 -11 -2 -577 -4 -1256 -1 -679 -5 -1269 -10 -1310 -10 -103 -49 -247 -87
-327 -42 -85 -126 -173 -203 -212 -100 -50 -180 -65 -345 -64 -189 0 -322 48
-431 154 -32 32 -59 60 -59 63 0 3 -13 27 -28 53 -16 26 -30 53 -31 58 -2 6
-8 21 -13 35 -11 28 -19 59 -20 78 -1 6 -4 12 -7 12 -3 0 -7 10 -7 23 -1 12
-4 32 -7 44 -18 69 -20 252 -22 1403 l-1 1265 -550 1 -550 1 2 -1331z"/>
<path d="M4593 2081 l2 -2026 548 0 547 0 0 55 c0 30 1 336 3 679 l2 625 158
94 c152 90 159 93 172 75 8 -11 59 -107 113 -214 55 -107 130 -252 167 -324
37 -71 90 -175 118 -230 28 -55 58 -108 66 -119 9 -10 15 -20 13 -22 -1 -2 18
-43 42 -92 25 -48 55 -107 68 -132 13 -25 27 -48 31 -51 5 -3 8 -8 7 -10 -2
-4 42 -101 50 -109 3 -3 30 -54 61 -115 l56 -109 596 -1 c328 0 605 2 616 5
20 5 19 8 -19 70 -21 36 -39 71 -40 78 0 6 -3 12 -8 12 -4 0 -15 17 -25 38 -9
20 -21 44 -27 52 -13 21 -154 271 -163 290 -4 8 -15 29 -25 45 -10 17 -34 57
-52 90 -50 91 -75 136 -99 178 -53 93 -65 115 -91 162 -15 28 -63 113 -107
190 -43 77 -82 147 -86 155 -4 8 -25 47 -48 85 -22 39 -43 78 -46 88 -3 9 -9
17 -14 17 -5 0 -9 4 -9 9 0 5 -45 89 -100 187 -55 98 -100 181 -100 186 0 4
-4 8 -10 8 -5 0 -10 5 -10 10 0 6 -30 63 -66 127 -96 169 -95 147 -14 260 38
54 73 103 77 108 35 45 63 85 59 85 -6 0 16 28 42 55 6 8 12 16 12 20 0 3 15
26 33 49 17 24 39 54 47 66 8 12 30 42 48 66 17 23 32 46 32 49 0 4 6 13 13
20 24 28 34 41 87 120 30 44 58 85 63 90 6 7 230 325 327 465 100 143 303 431
319 452 12 14 21 31 21 37 0 6 5 11 10 11 6 0 10 4 10 8 0 5 -267 9 -594 9
-541 1 -596 -1 -609 -16 -8 -9 -56 -79 -108 -156 -51 -77 -96 -142 -99 -145
-3 -3 -28 -39 -55 -80 -28 -41 -52 -77 -55 -80 -3 -3 -23 -32 -45 -65 -22 -33
-43 -61 -47 -63 -5 -2 -8 -8 -8 -14 0 -6 -13 -27 -30 -48 -16 -21 -30 -43 -30
-49 0 -6 -3 -11 -8 -11 -4 0 -16 -16 -26 -35 -11 -19 -23 -35 -28 -35 -4 0 -8
-5 -8 -10 0 -6 -19 -37 -42 -70 -24 -32 -68 -96 -98 -140 -30 -45 -61 -88 -68
-96 -7 -8 -11 -14 -7 -14 4 0 0 -7 -8 -15 -8 -8 -25 -31 -38 -52 -13 -21 -27
-42 -31 -48 -73 -91 -268 -384 -268 -401 0 -8 -4 -14 -9 -14 -5 0 -18 -20 -30
-45 -12 -25 -23 -45 -26 -45 -2 0 -4 354 -4 788 0 433 -1 826 -1 873 l0 87
-550 0 -549 0 2 -2027z"/>
</g>
</svg>
